# xmcd
#
# Track frame offsets: 
#        150
#        30750
#        38572
#        56378
#        66143
#        91961
#        104758
#        111692
#        140378
#        165131
#        189239
#        215543
#        254046
#        277194
#        293856
#        321615
#
# Disc length: 4547 seconds
#
# Revision: 0
# Processed by: cddbd v1.5.2PL0 Copyright (c) Steve Scherf et al.
# Submitted via: ExactAudioCopyFreeDBPlugin 1.0
#
DISCID=f011c110
DTITLE=Krzak - Blues Rock Band
DYEAR=1980
DGENRE=Blues
TTITLE0=Blues E-dur
TTITLE1=Lidek
TTITLE2=Czakus
TTITLE3=Chwile z B
TTITLE4=Dla Fredka
TTITLE5=Skalki
TTITLE6=Latka
TTITLE7=Blues H-moll czyli smuteczek
TTITLE8=Przewrotna samba
TTITLE9=Dzemowa maszynka
TTITLE10=Winter Rock
TTITLE11=Requiem dla Jaszczura
TTITLE12=Walc
TTITLE13=Acik
TTITLE14=Ptak moich marzen
TTITLE15=Kolysanka dla Maciusia
EXTD=
EXTT0=
EXTT1=
EXTT2=
EXTT3=
EXTT4=
EXTT5=
EXTT6=
EXTT7=
EXTT8=
EXTT9=
EXTT10=
EXTT11=
EXTT12=
EXTT13=
EXTT14=
EXTT15=
PLAYORDER=
